<svg width="377" height="272" viewBox="0 0 377 272" fill="none" xmlns="http://www.w3.org/2000/svg">
<path opacity="0.8" d="M1.45097 43.1784C0.181237 34.0173 1.19798 26.7619 4.06077 21.0357C6.92183 15.313 11.6524 11.066 17.9058 7.9652C30.444 1.74782 49.0186 0.178177 70.5694 0.570425C85.4291 0.840889 101.645 2.04101 118.204 3.26645C125.646 3.81713 133.156 4.37296 140.644 4.85184C164.772 6.39495 188.648 7.13741 209.08 4.30554C290.365 -6.96048 364.447 43.6108 374.639 117.145C384.831 190.679 327.295 259.492 246.01 270.758C225.801 273.56 201.053 265.406 175.081 250.347C149.127 235.298 122.026 213.397 97.1404 188.826C72.2558 164.256 49.5995 137.03 32.5284 111.342C15.4475 85.6383 3.99408 61.5271 1.45097 43.1784Z" fill="#AB446E" stroke="black"/>
</svg>
