<svg width="361" height="296" viewBox="0 0 361 296" fill="none" xmlns="http://www.w3.org/2000/svg">
<path opacity="0.8" d="M360 259.5C360 268.749 357.997 275.796 354.375 281.075C350.755 286.351 345.487 289.908 338.867 292.121C325.594 296.558 306.979 295.563 285.687 292.215C271.005 289.908 255.107 286.492 238.873 283.005C231.577 281.438 224.214 279.857 216.863 278.354C193.175 273.513 169.627 269.5 149 269.5C66.9381 269.5 0.5 209.237 0.5 135C0.5 60.763 66.9381 0.5 149 0.5C169.403 0.5 192.797 11.974 216.455 30.4561C240.098 48.9261 263.935 74.3399 285.212 102.095C306.488 129.848 325.192 159.927 338.575 187.716C351.965 215.521 360 240.976 360 259.5Z" fill="#B5547C" stroke="black"/>
</svg>
